<svg width="256" height="256" viewBox="0 0 256 256" fill="none" xmlns="http://www.w3.org/2000/svg">
<path d="M137.176 195.927C137.176 163.114 163.776 136.515 196.588 136.515C229.4 136.515 256 163.114 256 195.927C256 228.739 229.4 255.339 196.588 255.339C163.776 255.339 137.176 228.739 137.176 195.927Z" fill="#858585" fill-opacity="0.5"/>
<path d="M137.176 59.4122C137.176 26.5998 163.776 0 196.588 0C229.4 0 256 26.5998 256 59.4122V112.883C256 116.164 253.34 118.824 250.059 118.824H143.117C139.836 118.824 137.176 116.164 137.176 112.883V59.4122Z" fill="#CCCCCC" fill-opacity="0.5"/>
<path d="M118.824 195.927C118.824 228.739 92.2246 255.339 59.4122 255.339C26.5998 255.339 0 228.739 0 195.927V142.456C0 139.174 2.65999 136.515 5.94123 136.515H112.883C116.164 136.515 118.824 139.174 118.824 142.456V195.927Z" fill="#4D4D4D" fill-opacity="0.5"/>
</svg>
