<svg width="256" height="256" viewBox="0 0 256 256" fill="none" xmlns="http://www.w3.org/2000/svg">
<path d="M137.176 195.927C137.176 163.114 163.776 136.515 196.588 136.515C229.4 136.515 256 163.114 256 195.927C256 228.739 229.4 255.339 196.588 255.339C163.776 255.339 137.176 228.739 137.176 195.927Z" fill="white" fill-opacity="0.05"/>
<path d="M143.676 195.927C143.676 166.704 167.365 143.015 196.588 143.015C225.81 143.015 249.5 166.704 249.5 195.927C249.5 225.149 225.81 248.839 196.588 248.839C167.366 248.839 143.676 225.149 143.676 195.927Z" stroke="white" stroke-opacity="0.02" stroke-width="13"/>
<path d="M137.176 59.4122C137.176 26.5998 163.776 0 196.588 0C229.4 0 256 26.5998 256 59.4122V112.883C256 116.164 253.34 118.824 250.059 118.824H143.117C139.836 118.824 137.176 116.164 137.176 112.883V59.4122Z" fill="white" fill-opacity="0.05"/>
<path d="M143.676 59.4122C143.676 30.1897 167.366 6.5 196.588 6.5C225.81 6.5 249.5 30.1897 249.5 59.4122V112.324H143.676V59.4122Z" stroke="white" stroke-opacity="0.02" stroke-width="13"/>
<path d="M118.824 195.927C118.824 228.739 92.2246 255.339 59.4122 255.339C26.5998 255.339 0 228.739 0 195.927V142.456C0 139.174 2.65999 136.515 5.94123 136.515H112.883C116.164 136.515 118.824 139.174 118.824 142.456V195.927Z" fill="white" fill-opacity="0.05"/>
<path d="M112.324 195.927C112.324 225.149 88.6347 248.839 59.4122 248.839C30.1897 248.839 6.5 225.149 6.5 195.927V143.015H112.324V195.927Z" stroke="white" stroke-opacity="0.02" stroke-width="13"/>
</svg>
